<svg id="TOP_BAR" data-name="TOP BAR" xmlns="http://www.w3.org/2000/svg" viewBox="0 0 396.04 126.9"><defs><style>.cls-1{fill:#fff;}</style></defs><title>logo-08</title><g id="text-3" data-name="text"><path class="cls-1" d="M56.41,85.08q0.36-1.38.75-2.91t0.45-2a74.89,74.89,0,0,0,.9-13.62V48.48a26.38,26.38,0,0,0-.18-3.39,24.42,24.42,0,0,0-.72-3.27h7.06L77.83,68,90.32,41.82h7.13L97,43.56a26.6,26.6,0,0,0-.42,4.92V78.6l0.18,2.76c0,0.76,0,1.23,0,1.41s0.25,1,.69,2.31H88.39l0.42-1.56a21.76,21.76,0,0,0,.48-4.92V47.28L74.77,77.4,59.89,47.94V66.12l0.18,7.32a37.08,37.08,0,0,0,.6,7.08q0.06,0.42,1.08,4.56H56.41Z"/><path class="cls-1" d="M99.19,41.82h7.62l-0.12,3.12A30,30,0,0,0,108,52.24a46,46,0,0,0,3,8.25l3,6.05,8.09-18,1-2.78a13.82,13.82,0,0,0,.54-2q0.18-.93.3-2h9.53l-1.14,1.74Q131.59,44.88,131,46a21.86,21.86,0,0,0-1.2,2.52L116.53,78.54l-1.08,2.82-0.78,2.16-0.36,1.56h-9.06l1-1.57,1.18-2.17,1.3-2.83,4.48-10.3L107.7,56.94l-2.94-5.82q-1.86-3.54-2.52-4.62Q101.4,45.06,99.19,41.82Z"/><path class="cls-1" d="M134.47,85.08l0.9-3.72a37.32,37.32,0,0,0,.6-4.5q0.18-2.4.18-6.12v-25a7.25,7.25,0,0,0-.21-1.92q-0.48-1.14-.75-2h6.34l23.18,36.3-0.06-18.07a58.9,58.9,0,0,0-1-10.15,34.13,34.13,0,0,0-2.7-8.1h5.94l-0.42,1.74a25.3,25.3,0,0,0-.33,2.61Q166,47.88,166,48.54V85.08h-5.22L137.47,48.42l0.06,17.16q0,2.52.3,5.58t0.78,5.46a34.25,34.25,0,0,0,1,4.11q0.57,1.71,1.65,4.35h-6.84Z"/><path class="cls-1" d="M212.59,58V41.82h28.68V58.08q-1-4.11-1.68-6.29a29.67,29.67,0,0,0-1.74-4.17,10.07,10.07,0,0,0-2.16-2.78,5,5,0,0,0-2-1.18,11,11,0,0,0-3-.33V80a5.72,5.72,0,0,0,.18,1.38,8,8,0,0,0,.27,2.2q0.27,0.93.39,1.54h-9.12l0.48-1.56q0.06-.18.24-2t0.18-2.91V43.32a11.12,11.12,0,0,0-2.93.6,6.74,6.74,0,0,0-2.08,1.38A13.26,13.26,0,0,0,216,48.24a23.78,23.78,0,0,0-1.63,3.66Q213.67,53.94,212.59,58Z"/><path class="cls-1" d="M300.9,43.62V59.46q-0.66-3.18-1.17-5t-1.41-4.38a18,18,0,0,0-3.33-6,5.73,5.73,0,0,0-4.23-1.65q-4.56,0-7.32,5.49t-2.76,14.79a42.65,42.65,0,0,0,1,9.48q0.42,1.8,1,3.54A27.22,27.22,0,0,0,284,79.14q2.58,5.4,6.9,5.4,3.42,0,5.82-3.75T301,68.88v16.2a1.56,1.56,0,0,0-1.68-1,10.21,10.21,0,0,0-3,.66,25.3,25.3,0,0,1-3.21.9,15.12,15.12,0,0,1-2.82.24q-7.38,0-12.36-6.63t-5-16.53q0-9.54,5.16-15.66A16.56,16.56,0,0,1,291.36,41a17.21,17.21,0,0,1,4.29.45A32.18,32.18,0,0,1,300.9,43.62Z"/><path class="cls-1" d="M307.32,85.08l0.42-1.56a14.58,14.58,0,0,0,.33-2,26.76,26.76,0,0,0,.15-2.88V45.66A7.29,7.29,0,0,0,308,43.8q-0.42-1.14-.69-2h9.06a17.14,17.14,0,0,0-.66,2.88q-0.12,1.08-.12,3.78v7.68q0,3.48,1.56,4.74t5.42,1.26h11V45.66a8.33,8.33,0,0,0-.28-2.28q-0.42-1-.62-1.56h9.06l-0.42,1.68a28.57,28.57,0,0,0-.36,5V81.36A6.35,6.35,0,0,0,341.1,83q0.18,0.6.67,2h-9.18a5.82,5.82,0,0,0,.55-1.38q0.07-.42.24-2a29.26,29.26,0,0,0,.17-3.1v-15h-11q-4.41,0-5.68,1.14T315.6,69.8V81.35a7.29,7.29,0,0,0,.29,2.23l0.49,1.5h-9.06Z"/><path class="cls-1" d="M196.27,76.6l-1.92,3.64q-2.1,3.22-4.44,3.46h-7.14v-19h1.6c2.57,0,3.38.42,4.42,1.26a7.16,7.16,0,0,1,2.56,4.74V57.08a8,8,0,0,1-2.27,5.11c-0.84.76-1.74,1.14-4.68,1.14h-1.64v-20h3.84q4.8,0,6.66,3a27.1,27.1,0,0,1,3.6,8.52l0.9,4.38V41.82H174.55q0.21,0.84.63,2a7.31,7.31,0,0,1,.21,1.87v33q0,1.51-.12,2.83a10.86,10.86,0,0,1-.36,2.11l-0.42,1.38h24.36V67.8A53.82,53.82,0,0,1,196.27,76.6Z"/><path class="cls-1" d="M265.81,76.6l-1.92,3.64q-2.1,3.22-4.44,3.46h-7.14v-19h1.6c2.57,0,3.38.42,4.42,1.26a7.16,7.16,0,0,1,2.56,4.74V57.08a8,8,0,0,1-2.27,5.11c-0.84.76-1.74,1.14-4.68,1.14h-1.64v-20h3.84q4.8,0,6.66,3a27.1,27.1,0,0,1,3.6,8.52l0.9,4.38V41.82H244.09q0.21,0.84.63,2a7.31,7.31,0,0,1,.21,1.87v33q0,1.51-.12,2.83a10.86,10.86,0,0,1-.36,2.11L244,85.08h24.36V67.8A53.82,53.82,0,0,1,265.81,76.6Z"/><circle class="cls-1" cx="210.93" cy="81.97" r="3.95"/></g></svg>