<svg id="CARDS" xmlns="http://www.w3.org/2000/svg" viewBox="0 0 396.04 540"><title>clothes</title><g id="icons"><path d="M112.37,338.35c-1,6.08-2.12,12.15-2.92,18.25-1.1,8.46-2,16.95-2.89,25.43-0.25,2.29-.21,4.61-0.41,6.91-1.25,14.81-2.46,29.62-3.85,44.42-0.4,4.32-2.24,6.32-6.78,6.38-9.8.12-19.61-.2-29.4-0.62-3.4-.15-5.81-3-6.61-6.6a181,181,0,0,1-3.66-57c1-9.85,1.24-19.78,2.35-29.61,1.75-15.53,3.64-31,6-46.48,2.17-13.95,4.52-27.92,7.86-41.62,5.48-22.47,12.66-44.44,24-64.76a289.39,289.39,0,0,1,16-25.79,31.24,31.24,0,0,1,16-11.61c12.09-4,24.09-8.37,36.2-12.35a10,10,0,0,1,6.22.11c17.36,6.68,35.09,8.19,53.2,4,4.23-1,8.21-3,12.41-4.13,2-.54,4.51-0.9,6.25-0.12q16.68,7.41,33.08,15.42c6.81,3.31,13.6,6.56,18.63,12.76,5.86,7.21,9.69,15.35,12.58,24,5.13,15.35,10.24,30.72,14.87,46.23C331.88,276.41,338.81,312,341.1,348.3c0.89,14,1.18,28.14,1.26,42.21,0.07,13-.5,26-0.81,38.93a27,27,0,0,1-.3,3.1c-0.79,5.6-2.31,6.71-8,6.7s-11.48.53-17.22,0.46a79.87,79.87,0,0,1-12.35-1.17c-3.58-.61-5.45-3.16-5.78-6.79-1.62-17.55-3.08-35.11-4.94-52.63-1.09-10.27-2.83-20.47-4.8-30.74,0,0.9-.11,1.81-0.14,2.71-0.55,16-1,32.09-1.68,48.12-0.24,5.64-1,11.26-1.6,16.88s-2.4,7.55-8.23,7.57c-17.9,0-35.79-.16-53.69-0.09-28.17.11-56.33,0.36-84.5,0.55-3.35,0-6.72-.25-10,0.09-8.41.86-12.07-5.14-12.52-11.95-1.11-16.55-1.6-33.14-2.13-49.73-0.26-8,0-16.11,0-24.16Z"/></g></svg>