<svg id="CARDS" xmlns="http://www.w3.org/2000/svg" viewBox="0 0 396.04 540"><defs><style>.cls-1{fill:#999;}</style></defs><title>clothes</title><g id="icons"><path class="cls-1" d="M310.42,413.52a16.06,16.06,0,0,1,5.1-1.4l0-.14c3.32-.65,6.48-1.47,9.7-1.83,2.07-.23,2.57-1.08,2.46-2.94-0.55-9.16-.94-18.34-1.56-27.49-1.08-15.84-2.32-31.66-3.43-47.49-1-14.32-1.87-28.64-2.92-43-0.36-4.91-.92-9.82-1.66-14.69-1.44-9.39-2.77-18.8-4.7-28.09-2-9.85-4.08-19.78-7.36-29.26-2.54-7.35-7.33-13.89-10.46-21.07-3.2-7.36-9.12-12.78-12.9-19.78-2.28-4.21-7.18-7.58-11.65-9.93-12.18-6.4-24.84-11.89-37.13-18.09a159.46,159.46,0,0,1-17.49-10.47,16.89,16.89,0,0,0-9.78-3.29c-8.36,0-16.72-.51-25.06-0.28-3,.08-6.07,1.36-8.83,2.69a43,43,0,0,0-7.56,5.12c-5.22,4.08-11.84,6.47-15.35,12.64a3.35,3.35,0,0,1-1.41,1c-7,3.62-14.1,7-21,10.88-7.63,4.29-15.68,8.19-19.59,16.93-2.81,6.29-6.53,12.23-8.73,18.71-3.16,9.28-5.16,19-7.92,28.38-2.92,10-6.62,19.75-9.12,29.83-2.14,8.61-3.14,17.51-4.53,26.31-2.46,15.52-5.48,31-7.05,46.59-1.27,12.62-.77,25.42-1.06,38.14-0.26,11.4-.17,22.82-1,34.18-0.3,4.1,1.43,4.22,4.17,4.45a17,17,0,0,1,2.25.67l-0.53,0a30.5,30.5,0,0,1,3.35.44c0.8,0,1.6,0,2.41,0,1,0.06,2,.19,3,0.34,6-.33,12.27-0.57,18.48-1.16,4-.38,4.58-1.56,4.18-5.6a20.06,20.06,0,0,1-.17-3.52c0.65-8.16,1.54-16.3,2-24.46,0.48-8.68.21-17.42,0.94-26.07,0.63-7.51,2.2-14.95,3.35-22.41l0.87,0c0.9,7.06,1.88,14.1,2.69,21.17,1,8.71,1.74,17.45,2.78,26.16,0.56,4.71,1.37,9.4,2.39,14a4.47,4.47,0,0,0,2.77,2.76c4.41,1.1,8.92,2.52,13.39,2.54,16.77,0.07,33.55-.34,50.32-0.61,6.24-.1,12.48-0.51,18.72-0.41,15.79,0.26,31.6,1.29,47.37.86,7.09-.19,14.12-3,21.13-4.87,2.48-.65,3.22-2.5,3-5.2-0.26-3.21.24-6.49,0.34-9.74,0.14-4.46,1.12-9.17.06-13.34-1.24-4.85-.41-9.27.44-13.76,1.75-9.28,3.9-18.48,5.89-27.71a27,27,0,0,0,.33,6.33c1.09,11.33,2.4,22.65,3.09,34,0.48,8,.16,16,0.09,24-0.07,8.21-.24,16.43-0.46,24.64-0.05,2.08.66,3,2.81,3.06,6.63,0.25,13.25.63,20.42,1A0.77,0.77,0,0,1,310.42,413.52Z"/></g></svg>