<svg id="CARDS" xmlns="http://www.w3.org/2000/svg" viewBox="0 0 396.04 540"><defs><style>.cls-1{fill:#646c85;}</style></defs><title>clothes2</title><g id="icons"><path class="cls-1" d="M339.76,414.39c-7.53,2.58-15.09,5.07-22.57,7.77-3.31,1.19-5.25.46-6.88-2.8-5.07-10.15-10.35-20.2-15.73-30.2-0.73-1.37-2.46-2.2-3.73-3.28-0.53,1.48-1.42,2.93-1.53,4.44q-0.85,11.74-1.34,23.51c-0.14,3.43-1.8,5.53-4.73,7s-5.62,2.93-5.49,6.79a1,1,0,0,1-.26.73c-6.29,5.52-1.8,11.84-1.08,17.72,0.59,4.81-.68,7.07-5.58,7.47a96.93,96.93,0,0,0-10.47,1.31c-2.46.47-3.35-.29-3.56-2.67-0.38-4.26-.95-8.5-1.48-13.14-4.73,1.75-8.85,3.69-13.19,4.8-7.27,1.86-14.61,4-22,4.54-10,.72-20,0.17-30.05-0.17-3.74-.13-7.44-1.4-11.19-1.79-3.53-.37-4.81-2.14-4.42-5.48a8.39,8.39,0,0,0,.06-2.35,17.79,17.79,0,0,0-.85-2.61l-2.29,1.85a37.34,37.34,0,0,0-3.65-1c-4.2-.8-6.05-4.5-8.4-7.29-0.92-1.09.19-3.89,0.37-5.9a75.86,75.86,0,0,0,.75-9.57c0-1.23-1.63-2.41-2.54-3.66-1.43,4.24-2.88,7.51-3.6,10.94a51.74,51.74,0,0,0-.74,9.66c-0.1,5.13-.4,5.24-5.23,3.76-5.22-1.6-10.07-3.74-13.33-8.21a8.9,8.9,0,0,1-1.49-5.74c0.46-4.06-.88-6.55-4.76-7.71-3.37-1-6.72-2.09-10.11-3-2.81-.75-4.18-2.29-4-5.34,0.7-9.13,1.28-18.27,1.88-27.4,0.23-3.47.36-6.94,0.57-11.18-1.43,1-2.35,1.36-2.78,2-4.38,6.79-9.09,13.41-12.9,20.5-4.31,8-7.83,16.46-11.63,24.75-1.24,2.71-1.55,6.71-3.6,7.95s-5.68-.23-8.55-0.85c-7.19-1.55-14.43-3-21.49-5-6-1.73-6.51-3.06-4.72-9,7.5-24.61,15.28-49.14,22.61-73.8q20.27-68.12,40.11-136.36c1.72-5.88,2.62-12,4.44-17.84a12.6,12.6,0,0,1,4.5-6c11.73-8.4,25.23-12.91,39-16.51,3.68-1,5.26-3.44,7.07-6.07,0.59-.86,1-1.85,1.47-2.77,2.2-3.95,5-4.79,9.85-4.34,11.53,1.07,23.2.82,34.81,0.92a83.31,83.31,0,0,0,10.5-.87c5-.6,6.42,3.68,8.15,6.66,2.64,4.55,5.31,7.63,11,9.14,9.65,2.56,18.85,6.81,28.17,10.54a10.34,10.34,0,0,1,3.78,3.31c6.9,8.69,12.09,18.24,14.7,29.12,6.47,27,12.64,54.12,19.65,81,6,22.85,13.2,45.37,19.32,68.19,2.76,10.31,3.74,21.09,6.31,31.46,2,8.07,5.07,15.9,7.93,23.73,1.12,3.07,1,5.14-2.27,6.48a16.28,16.28,0,0,0-2.91,2Z"/></g></svg>