<svg id="CARDS" xmlns="http://www.w3.org/2000/svg" viewBox="0 0 396.04 540"><defs><style>.cls-1{fill:#f8a4a7;}</style></defs><title>clothes</title><g id="icons"><path class="cls-1" d="M114.35,366.59c-2.29,7.16-5,14.22-6.8,21.49-8,31.46-15.66,63-23.46,94.5C83.22,486.1,83,490,81.33,493c-1.55,2.81-4.3,5.79-7.2,6.87-14.27,5.3-27.76,2.9-33.45-10.73a10.77,10.77,0,0,1-1-5.28c1.8-13.36,3.68-26.72,5.78-40,3.41-21.64,7-43.25,10.55-64.87,3.78-23.21,7.48-46.43,11.38-69.62,3.26-19.38,6.08-38.88,10.35-58C83,227.93,89,204.69,95.69,181.68c4-13.85,9.61-27.28,15.16-40.62,1.34-3.21,5.12-5.56,8.1-7.9,11.07-8.7,23.69-14,37.39-17.1a173.54,173.54,0,0,0,17.47-5.12c5.41-1.83,5.51-6.92,6.16-11.44a56.45,56.45,0,0,0,.12-7c0.14-8.43,3.93-14.15,12.14-15C202,76.47,212,77,221.87,77c6.94,0,12.23,7.3,12.11,13.89-0.14,8,2.88,13,10.71,15.38,7.51,2.29,14.77,5.41,22.25,7.82A123.63,123.63,0,0,1,303.7,133c6.1,4.58,9.3,11,11.33,17.65,8,26.27,16.44,52.47,22.72,79.17a819.47,819.47,0,0,1,15,81.52c5.47,42,9.33,84.14,13.54,126.26,1.19,11.91,1.29,23.94,1.78,35.91,0.64,15.65-5.66,24.26-20.68,28.53-8.63,2.45-13.14-.55-14-9.41-0.13-1.3,0-2.62-1.15-3.3-1.36-1.87-3.58-3.58-3.95-5.62-3.56-19.95-6.29-40.06-10.27-59.92-4.77-23.85-10.5-47.51-15.9-71.24a44,44,0,0,0-2.34-6.08l-1.29.27c-0.11,1.73-.3,3.46-0.33,5.19q-0.49,35-.91,69.94c0,3.65.37,7.31,0.45,11,0.06,2.87,2.06,6.47-2.66,7.79a2.53,2.53,0,0,0-.57,1.33c-2.95,8.56-8.74,12.37-17.73,11-5.08-.79-10-2.81-15-3.58-12-1.81-24-4.41-36.06-4.35-7.78,0-15.78,3.58-23.24,6.64-11.3,4.64-22.46,5.95-33.93,1.39-8.25-3.28-16-1.31-23.82,1.47a93.23,93.23,0,0,1-12.88,3.88c-6.82,1.35-9.53-1.43-10.74-8.29-2.34-13.28-3.08-26.64-3.29-40.06-0.19-12.3-.32-24.61-0.55-36.92,0-2.07-.45-4.13-0.7-6.19Z"/></g></svg>